<svg width="16" height="16" viewBox="0 0 16 16" fill="none" xmlns="http://www.w3.org/2000/svg">
  <path d="M2.5 8H13.5C13.8978 8 14.2794 8.15804 14.5607 8.43934C14.842 8.72064 15 9.10218 15 9.5V11.5C15 11.8978 14.842 12.2794 14.5607 12.5607C14.2794 12.842 13.8978 13 13.5 13H2.5C2.10218 13 1.72064 12.842 1.43934 12.5607C1.15804 12.2794 1 11.8978 1 11.5V9.5C1 9.10218 1.15804 8.72064 1.43934 8.43934C1.72064 8.15804 2.10218 8 2.5 8Z" fill="#101828"/>
  <path d="M3 10C3.55228 10 4 9.55228 4 9C4 8.44772 3.55228 8 3 8C2.44772 8 2 8.44772 2 9C2 9.55228 2.44772 10 3 10Z" fill="white"/>
  <path d="M13 10C13.5523 10 14 9.55228 14 9C14 8.44772 13.5523 8 13 8C12.4477 8 12 8.44772 12 9C12 9.55228 12.4477 10 13 10Z" fill="white"/>
  <path d="M5 7L6 5H10L11 7H5Z" fill="#101828"/>
  <path d="M6 13V14H10V13H6Z" fill="#D1D5DB"/>
</svg>